<svg width="112" height="30" viewBox="0 0 112 30" fill="none" xmlns="http://www.w3.org/2000/svg">
<path d="M44.754 23.176C43.7273 23.176 42.8253 22.978 42.048 22.582C41.2707 22.1713 40.662 21.5993 40.222 20.866C39.7967 20.1327 39.584 19.2893 39.584 18.336V12.264C39.584 11.3107 39.7967 10.4673 40.222 9.734C40.662 9.00067 41.2707 8.436 42.048 8.04C42.8253 7.62933 43.7273 7.424 44.754 7.424C45.766 7.424 46.6607 7.622 47.438 8.018C48.23 8.414 48.8387 8.97133 49.264 9.69C49.6893 10.394 49.902 11.1933 49.902 12.088V12.374C49.902 12.5207 49.8287 12.594 49.682 12.594H48.56C48.4133 12.594 48.34 12.5207 48.34 12.374V12.11C48.34 11.1273 48.01 10.328 47.35 9.712C46.7047 9.096 45.8393 8.788 44.754 8.788C43.6687 8.788 42.796 9.10333 42.136 9.734C41.476 10.3647 41.146 11.1933 41.146 12.22V18.38C41.146 19.4067 41.4833 20.2353 42.158 20.866C42.8327 21.4967 43.72 21.812 44.82 21.812C45.8907 21.812 46.7413 21.5187 47.372 20.932C48.0173 20.3453 48.34 19.5607 48.34 18.578V16.576C48.34 16.5173 48.3107 16.488 48.252 16.488H45.018C44.8713 16.488 44.798 16.4147 44.798 16.268V15.344C44.798 15.1973 44.8713 15.124 45.018 15.124H49.682C49.8287 15.124 49.902 15.1973 49.902 15.344V18.182C49.902 19.7513 49.4327 20.976 48.494 21.856C47.57 22.736 46.3233 23.176 44.754 23.176ZM52.8722 23C52.7255 23 52.6522 22.9267 52.6522 22.78V7.82C52.6522 7.67333 52.7255 7.6 52.8722 7.6H53.9942C54.1409 7.6 54.2142 7.67333 54.2142 7.82V22.78C54.2142 22.9267 54.1409 23 53.9942 23H52.8722ZM60.9725 11.692C62.2925 11.692 63.3118 12.0293 64.0305 12.704C64.7492 13.3787 65.1085 14.2733 65.1085 15.388V22.78C65.1085 22.9267 65.0352 23 64.8885 23H63.7665C63.6198 23 63.5465 22.9267 63.5465 22.78V21.878C63.5465 21.8487 63.5318 21.8267 63.5025 21.812C63.4878 21.7973 63.4658 21.8047 63.4365 21.834C63.0698 22.274 62.5932 22.6113 62.0065 22.846C61.4198 23.066 60.7672 23.176 60.0485 23.176C59.0072 23.176 58.1345 22.912 57.4305 22.384C56.7265 21.856 56.3745 21.0493 56.3745 19.964C56.3745 18.864 56.7705 17.9987 57.5625 17.368C58.3692 16.7227 59.4838 16.4 60.9065 16.4H63.4585C63.5172 16.4 63.5465 16.3707 63.5465 16.312V15.476C63.5465 14.728 63.3338 14.1413 62.9085 13.716C62.4978 13.276 61.8525 13.056 60.9725 13.056C60.2685 13.056 59.6965 13.1953 59.2565 13.474C58.8165 13.738 58.5452 14.112 58.4425 14.596C58.3985 14.7427 58.3105 14.8087 58.1785 14.794L56.9905 14.64C56.8292 14.6107 56.7632 14.552 56.7925 14.464C56.9098 13.6427 57.3498 12.9753 58.1125 12.462C58.8752 11.9487 59.8285 11.692 60.9725 11.692ZM60.3565 21.834C61.2218 21.834 61.9698 21.6213 62.6005 21.196C63.2312 20.756 63.5465 20.1693 63.5465 19.436V17.72C63.5465 17.6613 63.5172 17.632 63.4585 17.632H61.1485C60.1805 17.632 59.4032 17.83 58.8165 18.226C58.2298 18.622 57.9365 19.172 57.9365 19.876C57.9365 20.5213 58.1565 21.0127 58.5965 21.35C59.0512 21.6727 59.6378 21.834 60.3565 21.834ZM72.2468 11.758C72.7308 11.758 73.1488 11.8533 73.5008 12.044C73.6182 12.1027 73.6622 12.198 73.6328 12.33L73.3908 13.408C73.3468 13.5547 73.2515 13.5987 73.1048 13.54C72.8555 13.4373 72.5695 13.386 72.2468 13.386L71.9608 13.408C71.1982 13.4373 70.5675 13.7233 70.0688 14.266C69.5702 14.794 69.3208 15.4687 69.3208 16.29V22.78C69.3208 22.9267 69.2475 23 69.1008 23H67.9788C67.8322 23 67.7588 22.9267 67.7588 22.78V12.088C67.7588 11.9413 67.8322 11.868 67.9788 11.868H69.1008C69.2475 11.868 69.3208 11.9413 69.3208 12.088V13.43C69.3208 13.474 69.3282 13.5033 69.3428 13.518C69.3722 13.518 69.3942 13.5033 69.4088 13.474C69.7168 12.9313 70.1055 12.5133 70.5748 12.22C71.0588 11.912 71.6162 11.758 72.2468 11.758ZM83.6011 15.564C83.6597 15.9747 83.6891 16.488 83.6891 17.104V17.808C83.6891 17.9547 83.6157 18.028 83.4691 18.028H76.3631C76.3044 18.028 76.2751 18.0573 76.2751 18.116C76.3044 18.9227 76.3484 19.4433 76.4071 19.678C76.5684 20.338 76.9131 20.8587 77.4411 21.24C77.9691 21.6213 78.6437 21.812 79.4651 21.812C80.0811 21.812 80.6237 21.6727 81.0931 21.394C81.5624 21.1153 81.9291 20.7193 82.1931 20.206C82.2811 20.074 82.3837 20.0447 82.5011 20.118L83.3591 20.624C83.4764 20.6973 83.5057 20.8 83.4471 20.932C83.0804 21.636 82.5304 22.1933 81.7971 22.604C81.0637 23 80.2204 23.198 79.2671 23.198C78.2257 23.1833 77.3531 22.934 76.6491 22.45C75.9451 21.966 75.4391 21.2913 75.1311 20.426C74.8671 19.722 74.7351 18.71 74.7351 17.39C74.7351 16.774 74.7424 16.2753 74.7571 15.894C74.7864 15.498 74.8451 15.146 74.9331 14.838C75.1824 13.8847 75.6811 13.122 76.4291 12.55C77.1917 11.978 78.1084 11.692 79.1791 11.692C80.5137 11.692 81.5404 12.0293 82.2591 12.704C82.9777 13.3787 83.4251 14.332 83.6011 15.564ZM79.1791 13.056C78.4604 13.056 77.8591 13.2467 77.3751 13.628C76.9057 13.9947 76.5977 14.4933 76.4511 15.124C76.3631 15.432 76.3044 15.9307 76.2751 16.62C76.2751 16.6787 76.3044 16.708 76.3631 16.708H82.0611C82.1197 16.708 82.1491 16.6787 82.1491 16.62C82.1197 15.96 82.0757 15.4907 82.0171 15.212C81.8557 14.552 81.5257 14.0313 81.0271 13.65C80.5431 13.254 79.9271 13.056 79.1791 13.056ZM86.7235 23C86.5769 23 86.5035 22.9267 86.5035 22.78V7.82C86.5035 7.67333 86.5769 7.6 86.7235 7.6H91.9155C93.3675 7.6 94.5189 7.98133 95.3695 8.744C96.2349 9.50667 96.6675 10.5407 96.6675 11.846V18.754C96.6675 20.0593 96.2349 21.0933 95.3695 21.856C94.5189 22.6187 93.3675 23 91.9155 23H86.7235ZM88.0655 21.548C88.0655 21.6067 88.0949 21.636 88.1535 21.636H91.9815C92.9349 21.636 93.6902 21.3573 94.2475 20.8C94.8195 20.2427 95.1055 19.4947 95.1055 18.556V12.066C95.1055 11.1127 94.8269 10.3573 94.2695 9.8C93.7122 9.24267 92.9495 8.964 91.9815 8.964H88.1535C88.0949 8.964 88.0655 8.99333 88.0655 9.052V21.548ZM107.225 14.97C107.152 15.014 107.152 15.058 107.225 15.102C108.017 15.4247 108.618 15.9013 109.029 16.532C109.44 17.1627 109.645 17.9253 109.645 18.82C109.645 20.14 109.22 21.1667 108.369 21.9C107.533 22.6333 106.426 23 105.047 23H99.7232C99.5765 23 99.5032 22.9267 99.5032 22.78V7.82C99.5032 7.67333 99.5765 7.6 99.7232 7.6H104.893C106.316 7.6 107.43 7.952 108.237 8.656C109.058 9.36 109.469 10.35 109.469 11.626C109.469 12.4327 109.271 13.122 108.875 13.694C108.494 14.2513 107.944 14.6767 107.225 14.97ZM101.153 8.964C101.094 8.964 101.065 8.99333 101.065 9.052V14.332C101.065 14.3907 101.094 14.42 101.153 14.42H104.893C105.817 14.42 106.55 14.178 107.093 13.694C107.65 13.21 107.929 12.5647 107.929 11.758C107.929 10.9073 107.65 10.2327 107.093 9.734C106.55 9.22067 105.817 8.964 104.893 8.964H101.153ZM105.047 21.614C105.971 21.614 106.704 21.35 107.247 20.822C107.804 20.294 108.083 19.5827 108.083 18.688C108.083 17.7933 107.797 17.082 107.225 16.554C106.668 16.0113 105.912 15.74 104.959 15.74H101.153C101.094 15.74 101.065 15.7693 101.065 15.828V21.526C101.065 21.5847 101.094 21.614 101.153 21.614H105.047Z" fill="white"/>
<mask id="path-2-inside-1_30_42" fill="white">
<path d="M0 10C0 4.47715 4.47715 0 10 0H30V20C30 25.5228 25.5228 30 20 30H0V10Z"/>
</mask>
<path d="M30 0H31V-1H30V0ZM0 30H-1V31H0V30ZM10 1H30V-1H10V1ZM29 0V20H31V0H29ZM20 29H0V31H20V29ZM1 30V10H-1V30H1ZM29 20C29 24.9706 24.9706 29 20 29V31C26.0751 31 31 26.0751 31 20H29ZM10 -1C3.92487 -1 -1 3.92487 -1 10H1C1 5.02944 5.02944 1 10 1V-1Z" fill="white" mask="url(#path-2-inside-1_30_42)"/>
<path fill-rule="evenodd" clip-rule="evenodd" d="M11 3C6.58172 3 3 6.58172 3 11V20H9V9H20H21H27V3H11ZM27 10L21 10V21L11 21H3V27H19C23.4183 27 27 23.4183 27 19V10Z" fill="white"/>
<circle cx="15" cy="15" r="4" fill="white"/>
</svg>
