<?xml version="1.0" encoding="UTF-8"?>
<svg width="109px" height="90px" viewBox="0 0 109 90" version="1.1" xmlns="http://www.w3.org/2000/svg" xmlns:xlink="http://www.w3.org/1999/xlink">
    <!-- Generator: Sketch 46.2 (44496) - http://www.bohemiancoding.com/sketch -->
    <title>flow</title>
    <desc>Created with Sketch.</desc>
    <defs></defs>
    <g id="Page-1" stroke="none" stroke-width="1" fill="none" fill-rule="evenodd">
        <g id="Artboard-4" transform="translate(-359.000000, -172.000000)" stroke="#FFFFFF">
            <g id="flow" transform="translate(360.000000, 173.000000)">
                <g id="Group-4">
                    <rect id="Rectangle-6" stroke-width="1.4" x="0" y="16.6666667" width="28" height="46"></rect>
                    <path d="M20.1775706,24 L8,32.5268267" id="Line-3" stroke-width="1.4" stroke-linecap="square"></path>
                    <path d="M20.1775706,36 L8,44.5268267" id="Line-3" stroke-width="1.4" stroke-linecap="square"></path>
                    <path d="M20.1775706,48 L8,56.5268267" id="Line-3" stroke-width="1.4" stroke-linecap="square"></path>
                    <polyline id="Path-7" stroke-width="1.26" points="14.5579002 63.1666667 14.5579002 88.223091 56 88.223091 56 73.2265625"></polyline>
                    <path d="M54.7,28.5 L54.7,41.5384048" id="Line-5" stroke-width="1.4" stroke-linecap="square"></path>
                    <rect id="Rectangle-6" stroke-width="1.26" x="46" y="0" width="19.3400002" height="27.6836526"></rect>
                    <path d="M98.6869745,31.5106005 C103.032018,31.5106005 106.556481,35.0682306 106.556481,39.4541637 C106.556481,48.388975 95.727502,53.358794 92.7814815,56.3325382 C89.8354611,53.358794 79.0064819,48.388975 79.0064819,39.4541637 C79.0064819,35.0682306 82.5309447,31.5106005 86.8759885,31.5106005 C89.2301145,31.5106005 91.3421017,32.5561636 92.7814815,34.2127699 C94.2208614,32.5561636 96.3328486,31.5106005 98.6869745,31.5106005 Z" id="heart" stroke-width="1.26"></path>
                    <rect id="Rectangle" stroke-width="1.26" transform="translate(56.000000, 58.103516) rotate(-45.000000) translate(-56.000000, -58.103516) " x="45" y="47" width="22" height="22.2070326"></rect>
                    <polyline id="Path-16" stroke-width="1.26" transform="translate(79.247965, 23.470866) scale(-1, 1) rotate(-270.000000) translate(-79.247965, -23.470866) " points="68.7075585 10.5 68.7075585 36.4417318 89.7883722 36.4417318"></polyline>
                </g>
            </g>
        </g>
    </g>
</svg>