<?xml version="1.0" encoding="UTF-8"?>
<svg width="94px" height="62px" viewBox="0 0 94 62" version="1.1" xmlns="http://www.w3.org/2000/svg" xmlns:xlink="http://www.w3.org/1999/xlink">
    <!-- Generator: Sketch 46.2 (44496) - http://www.bohemiancoding.com/sketch -->
    <title>heart</title>
    <desc>Created with Sketch.</desc>
    <defs></defs>
    <g id="Page-1" stroke="none" stroke-width="1" fill="none" fill-rule="evenodd">
        <g id="Artboard-4" transform="translate(-195.000000, -355.000000)" stroke="#FFFFFF" stroke-width="1.4">
            <g id="heart" transform="translate(195.000000, 356.000000)">
                <path d="M77.7239154,33.7746647 C69.9621819,46.5609828 53.8620519,54.6472885 48.5,60.0296897 C45.0896411,56.6063883 37.3355332,52.089308 30.1456855,45.9648889 M15.4201223,15.1901261 C17.262274,6.51221847 24.9449932,0 34.1381836,0 C39.8632812,0 44.9995117,2.5286029 48.5,6.53496075 C52.0004883,2.5286029 57.1367187,0 62.8618164,0 L62.8618164,0 C70.6213335,0 77.3047588,4.63944302 80.3083208,11.304676"></path>
                <polygon id="Rectangle-10" points="63 11 93 11 93 33 86.4443359 33 86.4443359 40.265625 76.9462891 33 63 33"></polygon>
                <polygon id="Rectangle-10" transform="translate(21.935398, 35.500000) scale(-1, 1) translate(-21.935398, -35.500000) " points="0.920982381 15 42.9498131 15 42.9498131 45.8211426 33.7655833 45.8211426 33.7655833 56 20.4591898 45.8211426 0.920982381 45.8211426"></polygon>
                <path d="M9.5,25.7 L32.7399998,25.7" id="Line-6" stroke-linecap="square"></path>
                <path d="M9.5,35.7 L22.7399998,35.7" id="Line-6" stroke-linecap="square"></path>
                <path d="M72.5,18.7 L85.7399998,18.7" id="Line-6" stroke-linecap="square"></path>
                <path d="M72.5,24.7 L78.7399998,24.7" id="Line-6" stroke-linecap="square"></path>
            </g>
        </g>
    </g>
</svg>