<?xml version="1.0" encoding="UTF-8"?>
<svg width="98px" height="100px" viewBox="0 0 98 100" version="1.1" xmlns="http://www.w3.org/2000/svg" xmlns:xlink="http://www.w3.org/1999/xlink">
    <!-- Generator: Sketch 46.2 (44496) - http://www.bohemiancoding.com/sketch -->
    <title>puzzle</title>
    <desc>Created with Sketch.</desc>
    <defs></defs>
    <g id="Page-1" stroke="none" stroke-width="1" fill="none" fill-rule="evenodd">
        <g id="Artboard-4" transform="translate(-534.000000, -161.000000)" stroke="#FFFFFF" stroke-width="1.316">
            <g id="puzzle" transform="translate(534.000000, 161.000000)">
                <path d="M58.815767,65.3813432 L58.815767,62.5925926 L74.0731218,62.5925926 L74.0731218,99.1851852 L37.4805293,99.1851852 L37.4805293,84.1629631 L34.5380599,84.1629631 C33.4961073,85.6753081 31.7522385,86.6666667 29.7768255,86.6666667 C26.585847,86.6666667 23.9990478,84.0798674 23.9990478,80.8888889 C23.9990478,77.6979103 26.585847,75.1111111 29.7768255,75.1111111 C31.915419,75.1111111 33.7826345,76.2730183 34.7816395,78 L37.4805293,78 L37.4805293,62.5925926 L52.652804,62.5925926 L52.652804,65.4350909 C51.0563175,66.4631856 49.9990478,68.2562717 49.9990478,70.2962963 C49.9990478,73.4872749 52.585847,76.0740741 55.7768255,76.0740741 C58.9678041,76.0740741 61.5546033,73.4872749 61.5546033,70.2962963 C61.5546033,68.2202463 60.4596627,66.3999333 58.815767,65.3813432 Z" id="Combined-Shape"></path>
                <path d="M28.9639152,58.6406024 L28.9639152,55.8518519 L44.22127,55.8518519 L44.22127,92.4444444 L7.6286774,92.4444444 L7.6286774,77.4222223 L4.686208,77.4222223 C3.64425547,78.9345674 1.90038668,79.9259259 -0.0750263047,79.9259259 C-3.26600486,79.9259259 -5.85280408,77.3391267 -5.85280408,74.1481481 C-5.85280408,70.9571696 -3.26600486,68.3703704 -0.0750263047,68.3703704 C2.06356717,68.3703704 3.93078269,69.5322775 4.92978768,71.2592593 L7.6286774,71.2592593 L7.6286774,55.8518519 L22.8009521,55.8518519 L22.8009521,58.6943501 C21.2044656,59.7224448 20.1471959,61.5155309 20.1471959,63.5555556 C20.1471959,66.7465341 22.7339951,69.3333333 25.9249737,69.3333333 C29.1159522,69.3333333 31.7027515,66.7465341 31.7027515,63.5555556 C31.7027515,61.4795055 30.6078108,59.6591926 28.9639152,58.6406024 Z" id="Combined-Shape" transform="translate(19.184233, 74.148148) rotate(-270.000000) translate(-19.184233, -74.148148) "></path>
                <path d="M35.7046559,28.7887506 L35.7046559,26 L50.9620107,26 L50.9620107,62.5925926 L14.3694181,62.5925926 L14.3694181,47.5703705 L11.4269487,47.5703705 C10.3849962,49.0827155 8.64112742,50.0740741 6.66571444,50.0740741 C3.47473588,50.0740741 0.887936658,47.4872749 0.887936658,44.2962963 C0.887936658,41.1053177 3.47473588,38.5185185 6.66571444,38.5185185 C8.80430791,38.5185185 10.6715234,39.6804257 11.6705284,41.4074074 L14.3694181,41.4074074 L14.3694181,26 L29.5416929,26 L29.5416929,28.8424983 C27.9452063,29.870593 26.8879367,31.6636791 26.8879367,33.7037037 C26.8879367,36.8946823 29.4747359,39.4814815 32.6657144,39.4814815 C35.856693,39.4814815 38.4434922,36.8946823 38.4434922,33.7037037 C38.4434922,31.6276537 37.3485516,29.8073407 35.7046559,28.7887506 Z" id="Combined-Shape" transform="translate(25.924974, 44.296296) rotate(-180.000000) translate(-25.924974, -44.296296) "></path>
                <path d="M84.815767,16.2702321 L84.815767,13.4814815 L100.073122,13.4814815 L100.073122,50.0740741 L63.4805293,50.0740741 L63.4805293,35.0518519 L60.5380599,35.0518519 C59.4961073,36.564197 57.7522385,37.5555556 55.7768255,37.5555556 C52.585847,37.5555556 49.9990478,34.9687563 49.9990478,31.7777778 C49.9990478,28.5867992 52.585847,26 55.7768255,26 C57.915419,26 59.7826345,27.1619072 60.7816395,28.8888889 L63.4805293,28.8888889 L63.4805293,13.4814815 L78.652804,13.4814815 L78.652804,16.3239798 C77.0563175,17.3520745 75.9990478,19.1451605 75.9990478,21.1851852 C75.9990478,24.3761637 78.585847,26.962963 81.7768255,26.962963 C84.9678041,26.962963 87.5546033,24.3761637 87.5546033,21.1851852 C87.5546033,19.1091352 86.4596627,17.2888222 84.815767,16.2702321 Z" id="Combined-Shape" transform="translate(75.036085, 31.777778) rotate(-120.000000) translate(-75.036085, -31.777778) "></path>
            </g>
        </g>
    </g>
</svg>